<svg width="69" height="36" viewBox="0 0 69 36" fill="none" xmlns="http://www.w3.org/2000/svg">
<path d="M68.0541 10.1629C68.5306 9.69613 68.5371 8.92999 68.0686 8.45163L60.4335 0.656246C59.9649 0.177882 59.1988 0.168444 58.7223 0.635165C58.2458 1.10189 58.2393 1.86803 58.7078 2.34639L65.4946 9.27562L58.5921 16.0362C58.1156 16.5029 58.1091 17.2691 58.5777 17.7474C59.0462 18.2258 59.8123 18.2352 60.2888 17.7685L68.0541 10.1629ZM1.85208 9.70172L67.1955 10.5067L67.216 8.08668L1.87253 7.28168L1.85208 9.70172Z" fill="url(#paint0_linear_238_202)"/>
<path d="M1.01428 27.9205C0.537815 27.4538 0.531418 26.6877 0.999994 26.2093L8.6359 18.4127C9.10448 17.9343 9.87059 17.9247 10.3471 18.3914C10.8235 18.858 10.8299 19.6241 10.3613 20.1026L3.57387 27.0329L10.4756 33.7924C10.9521 34.2591 10.9585 35.0252 10.4899 35.5036C10.0213 35.9821 9.25524 35.9916 8.77877 35.525L1.01428 27.9205ZM67.2162 27.4493L1.87282 28.2642L1.85261 25.8442L67.196 25.0292L67.2162 27.4493Z" fill="url(#paint1_linear_238_202)"/>
<defs>
<linearGradient id="paint0_linear_238_202" x1="67.2058" y1="9.28677" x2="-2.75985" y2="8.731" gradientUnits="userSpaceOnUse">
<stop stop-color="#0146FE"/>
<stop offset="1" stop-color="#0146FE" stop-opacity="0"/>
</linearGradient>
<linearGradient id="paint1_linear_238_202" x1="1.86263" y1="27.0443" x2="71.8283" y2="26.4957" gradientUnits="userSpaceOnUse">
<stop stop-color="#0146FE"/>
<stop offset="1" stop-color="#0146FE" stop-opacity="0"/>
</linearGradient>
</defs>
</svg>
