<svg width="15" height="23" viewBox="0 0 19 23" fill="none" xmlns="http://www.w3.org/2000/svg">
<path d="M18.0519 6.63229L13.1938 1.28798C13.0915 1.17725 12.9666 1.08866 12.8271 1.02792C12.6877 0.967169 12.5368 0.935604 12.3841 0.935251H3.63068C3.26714 0.931015 2.9063 0.996775 2.56878 1.12878C2.23126 1.26078 1.92366 1.45643 1.66355 1.70457C1.40344 1.95271 1.19591 2.24847 1.05282 2.57496C0.90973 2.90145 0.833875 3.25228 0.82959 3.60741V19.6404C0.833875 19.9955 0.90973 20.3463 1.05282 20.6728C1.19591 20.9993 1.40344 21.2951 1.66355 21.5432C1.92366 21.7913 2.23126 21.987 2.56878 22.119C2.9063 22.251 3.26714 22.3168 3.63068 22.3125H15.5353C15.8988 22.3168 16.2597 22.251 16.5972 22.119C16.9347 21.987 17.2423 21.7913 17.5024 21.5432C17.7625 21.2951 17.9701 20.9993 18.1132 20.6728C18.2563 20.3463 18.3321 19.9955 18.3364 19.6404V7.34843C18.3357 7.08353 18.2343 6.82832 18.0519 6.63229ZM11.7713 3.07298L15.8636 7.34843H12.581C12.4664 7.34167 12.3544 7.31269 12.2514 7.26317C12.1484 7.21365 12.0565 7.14459 11.9812 7.06001C11.9058 6.97544 11.8484 6.87704 11.8124 6.77058C11.7764 6.66411 11.7624 6.55169 11.7713 6.4399V3.07298Z" fill="url(#paint0_linear_238_142)"/>
<defs>
<linearGradient id="paint0_linear_238_142" x1="9.58299" y1="43.2511" x2="-6.6238" y2="8.07134" gradientUnits="userSpaceOnUse">
<stop stop-color="#0F9BFF" stop-opacity="0.38"/>
<stop offset="1" stop-color="#0D9AFF" stop-opacity="0.12"/>
<stop offset="1" stop-color="#0D9AFF" stop-opacity="0.52"/>
</linearGradient>
</defs>
</svg>
