<svg width="119" height="84" viewBox="0 0 119 84" fill="none" xmlns="http://www.w3.org/2000/svg">
<path d="M53.8602 82.8216L4.81901 54.4919C1.80634 52.7577 2.19003 49.7158 5.65744 47.7115L53.0075 20.3627C56.4892 18.3584 61.7471 18.131 64.7456 19.8794L113.787 48.2091C116.799 49.9432 116.416 52.9851 112.948 54.9894L65.5982 82.3383C62.1166 84.3426 56.8586 84.57 53.8602 82.8216Z" fill="url(#paint0_linear_238_198)"/>
<path d="M58.9886 71.2902C56.587 71.2902 54.2849 70.7785 52.4659 69.7266L3.42479 41.3969C1.25055 40.146 0 38.1844 0 36.038C0 33.6358 1.54897 31.3614 4.26321 29.7836L51.6133 2.43471C55.9902 -0.0954894 62.2429 -0.308703 66.1367 1.95142L115.178 30.2811C117.352 31.532 118.603 33.4936 118.603 35.64C118.603 38.0423 117.054 40.3308 114.339 41.8945L66.9893 69.2433C64.6445 70.6079 61.7455 71.2902 58.9744 71.2902H58.9886ZM55.2512 64.9079C57.4113 66.1588 61.6034 65.9313 64.204 64.4246L111.554 37.0757C112.748 36.3934 113.032 35.7679 113.032 35.6542C113.018 35.6258 112.861 35.3984 112.392 35.1283L63.3513 6.7986C61.1913 5.54772 57.0134 5.77515 54.3986 7.28189L7.0485 34.6308C5.8548 35.3131 5.57059 35.9385 5.57059 36.0522C5.58481 36.0807 5.74112 36.3223 6.21007 36.5782L55.2512 64.9079Z" fill="url(#paint1_linear_238_198)"/>
<defs>
<linearGradient id="paint0_linear_238_198" x1="59.3029" y1="147.957" x2="32.1997" y2="23.6004" gradientUnits="userSpaceOnUse">
<stop stop-color="#0D9AFF" stop-opacity="0.01"/>
<stop offset="1" stop-color="#0D9AFF" stop-opacity="0.12"/>
</linearGradient>
<linearGradient id="paint1_linear_238_198" x1="12.3878" y1="58.524" x2="126.787" y2="27.345" gradientUnits="userSpaceOnUse">
<stop offset="0.158406" stop-color="#A5BDFF" stop-opacity="0.46"/>
<stop offset="1" stop-color="#A5BDFF" stop-opacity="0"/>
</linearGradient>
</defs>
</svg>
