<svg width="40" height="48" viewBox="0 0 40 48" fill="none" xmlns="http://www.w3.org/2000/svg">
<path d="M34.2904 28.4243C37.2767 28.4243 39.6972 30.8449 39.6972 33.8311V35.8916H39.6814C39.5798 38.2207 38.9412 41.1419 36.3258 43.5284C33.4689 46.1351 28.5372 47.8394 20.2729 47.8394C12.0085 47.8394 7.07705 46.1351 4.22009 43.5284C1.6046 41.1419 0.966105 38.2207 0.864561 35.8916H0.848633V33.8311C0.848633 30.8449 3.26935 28.4243 6.25546 28.4243H34.2904Z" fill="#9DB8FF"/>
<path d="M9.81407 3.01374C7.33843 3.01374 5.33154 5.02063 5.33154 7.49627V19.4497C5.33154 21.9253 7.33843 23.9322 9.81407 23.9322H30.7325C33.2081 23.9322 35.2151 21.9253 35.2151 19.4497V7.49627C35.2151 5.02063 33.2081 3.01374 30.7325 3.01374H21.7675C21.7675 3.01374 21.7675 2.44174 21.7675 1.51957C21.7675 0.597391 21.0984 0.0253906 20.2733 0.0253906C19.4481 0.0253906 18.7791 0.714116 18.7791 1.51957V3.01374H9.81407ZM11.3083 13.473C11.3083 11.8225 12.6462 10.4846 14.2966 10.4846C15.947 10.4846 17.285 11.8225 17.285 13.473C17.285 15.1234 15.947 16.4613 14.2966 16.4613C12.6462 16.4613 11.3083 15.1234 11.3083 13.473ZM23.2617 13.473C23.2617 11.8225 24.5996 10.4846 26.25 10.4846C27.9005 10.4846 29.2384 11.8225 29.2384 13.473C29.2384 15.1234 27.9005 16.4613 26.25 16.4613C24.5996 16.4613 23.2617 15.1234 23.2617 13.473Z" fill="#9DB8FF"/>
</svg>
