<svg width="76" height="90" viewBox="0 0 107 123" fill="none" xmlns="http://www.w3.org/2000/svg">
<g filter="url(#filter0_d_238_182)">
<path d="M90.3807 40.1217C95.8524 60.5425 83.7338 81.5325 63.313 87.0042C42.8923 92.4759 21.9023 80.3573 16.4305 59.9366C10.9588 39.5158 23.0774 18.5258 43.4982 13.0541C63.9189 7.58235 84.9089 19.7009 90.3807 40.1217Z" fill="white"/>
<path d="M84.332 89.0842C84.3487 90.0393 83.4362 90.7379 82.5186 90.4725L64.2621 85.1915C63.1434 84.8679 62.8691 83.4091 63.7937 82.7013L81.7163 68.9802C82.6409 68.2723 83.9775 68.9179 83.998 70.0821L84.332 89.0842Z" fill="white"/>
</g>
<path d="M58.5365 62.0591L55.4559 53.3128H43.4136L40.3331 62.0591H34.8828L46.6019 30.4347H52.3322L64.0298 62.0591H58.5365ZM54.1203 48.8751L51.1259 40.2581C51.011 39.8847 50.8458 39.3605 50.6304 38.6855C50.415 37.9961 50.1995 37.2996 49.9841 36.5958C49.7687 35.8778 49.5892 35.2746 49.4455 34.7863C49.3019 35.3751 49.1224 36.0357 48.907 36.7682C48.7059 37.4863 48.5049 38.1613 48.3038 38.7932C48.1171 39.4251 47.9735 39.9134 47.8729 40.2581L44.857 48.8751H54.1203Z" fill="#001624"/>
<path d="M68.1574 68.8863C68.7071 68.2707 69.1798 67.589 69.5756 66.8415C69.9934 66.1159 70.2023 65.3353 70.2023 64.4997V64.2359C69.5646 64.1259 68.9599 63.9171 68.3883 63.6092C67.8386 63.3014 67.3548 62.9166 66.937 62.4549C66.5413 61.9931 66.2224 61.4654 65.9806 60.8717C65.7607 60.2781 65.6508 59.6404 65.6508 58.9588C65.6508 58.2112 65.7937 57.5186 66.0795 56.8809C66.3654 56.2213 66.7502 55.6496 67.2339 55.1659C67.7176 54.6821 68.2783 54.3083 68.916 54.0445C69.5756 53.7586 70.2682 53.6157 70.9938 53.6157C71.9393 53.6157 72.7748 53.8246 73.5004 54.2424C74.226 54.6601 74.8307 55.2098 75.3144 55.8915C75.7982 56.5731 76.161 57.3427 76.4028 58.2002C76.6667 59.0357 76.7986 59.8933 76.7986 60.7728C76.7986 61.7622 76.6667 62.7407 76.4028 63.7082C76.139 64.6756 75.7542 65.5881 75.2485 66.4457C74.7647 67.3032 74.1601 68.0728 73.4345 68.7544C72.7309 69.436 71.9173 69.9967 70.9938 70.4365L68.1574 68.8863Z" fill="#0146FE"/>
<defs>
<filter id="filter0_d_238_182" x="0.391995" y="11.7402" width="106.027" height="110.777" filterUnits="userSpaceOnUse" color-interpolation-filters="sRGB">
<feFlood flood-opacity="0" result="BackgroundImageFix"/>
<feColorMatrix in="SourceAlpha" type="matrix" values="0 0 0 0 0 0 0 0 0 0 0 0 0 0 0 0 0 0 127 0" result="hardAlpha"/>
<feOffset dy="17.2634"/>
<feGaussianBlur stdDeviation="7.36235"/>
<feComposite in2="hardAlpha" operator="out"/>
<feColorMatrix type="matrix" values="0 0 0 0 0.489149 0 0 0 0 0.59323 0 0 0 0 0.670833 0 0 0 0.16 0"/>
<feBlend mode="normal" in2="BackgroundImageFix" result="effect1_dropShadow_238_182"/>
<feBlend mode="normal" in="SourceGraphic" in2="effect1_dropShadow_238_182" result="shape"/>
</filter>
</defs>
</svg>
