<svg width="88" height="88" viewBox="0 0 130 130" fill="none" xmlns="http://www.w3.org/2000/svg">
<circle opacity="0.1" cx="64.9167" cy="65.3098" r="64.6199" fill="url(#paint0_radial_238_155)"/>
<circle opacity="0.2" cx="64.9154" cy="65.3099" r="54.1507" fill="url(#paint1_radial_238_155)"/>
<circle opacity="0.3" cx="64.9186" cy="65.3102" r="44.0426" fill="url(#paint2_radial_238_155)"/>
<circle cx="64.7343" cy="65.3368" r="34.476" fill="#0146FE"/>
<path d="M79.8509 60.9767C80.9197 60.9767 81.7871 61.8314 81.7871 62.8887C81.7871 71.4907 75.1924 78.5937 66.7352 79.5478V83.3966C66.7352 84.452 65.8678 85.3086 64.799 85.3086C63.7283 85.3086 62.8629 84.452 62.8629 83.3966V79.5478C54.4037 78.5937 47.8091 71.4907 47.8091 62.8887C47.8091 61.8314 48.6765 60.9767 49.7453 60.9767C50.814 60.9767 51.6814 61.8314 51.6814 62.8887C51.6814 70.03 57.5655 75.8405 64.799 75.8405C72.0307 75.8405 77.9147 70.03 77.9147 62.8887C77.9147 61.8314 78.7821 60.9767 79.8509 60.9767ZM65.1474 45.3345C69.1339 45.3345 72.4932 47.9806 73.5213 51.5924C73.6627 52.0876 73.289 52.579 72.7701 52.579H70.5067C69.8232 52.579 69.2675 53.1258 69.2675 53.8007C69.2675 54.4795 69.8232 55.0263 70.5067 55.0263H72.5939C73.2851 55.0263 73.8466 55.5788 73.8466 56.2614C73.8466 56.944 73.2851 57.4966 72.5939 57.4966H70.5067C69.8232 57.4966 69.2675 58.0453 69.2675 58.7221C69.2675 59.3971 69.8232 59.9458 70.5067 59.9458H72.5939C73.2851 59.9458 73.8466 60.4984 73.8466 61.1829C73.8466 61.8635 73.2851 62.4161 72.5939 62.4161H70.5067C69.8232 62.4161 69.2675 62.9648 69.2675 63.6417C69.2675 64.3166 69.8232 64.8634 70.5067 64.8634H72.6597C73.1902 64.8634 73.5697 65.3758 73.4032 65.8729C72.2551 69.2877 68.9945 71.7503 65.1474 71.7503H64.4484C59.6447 71.7503 55.7511 67.9054 55.7511 63.1637V53.9231C55.7511 49.1795 59.6447 45.3345 64.4484 45.3345H65.1474Z" fill="white"/>
<defs>
<radialGradient id="paint0_radial_238_155" cx="0" cy="0" r="1" gradientUnits="userSpaceOnUse" gradientTransform="translate(65.1672 65.3099) rotate(161.143) scale(68.5494 68.2848)">
<stop offset="0.375" stop-color="#3E7DFA" stop-opacity="0"/>
<stop offset="1" stop-color="#3E7DFA" stop-opacity="0.4"/>
</radialGradient>
<radialGradient id="paint1_radial_238_155" cx="0" cy="0" r="1" gradientUnits="userSpaceOnUse" gradientTransform="translate(65.1253 65.3099) rotate(161.143) scale(57.4436 57.2219)">
<stop offset="0.375" stop-color="#3E7DFA" stop-opacity="0"/>
<stop offset="1" stop-color="#3E7DFA" stop-opacity="0.4"/>
</radialGradient>
<radialGradient id="paint2_radial_238_155" cx="0" cy="0" r="1" gradientUnits="userSpaceOnUse" gradientTransform="translate(65.0893 65.3102) rotate(161.143) scale(46.7208 46.5405)">
<stop offset="0.375" stop-color="#3E7DFA" stop-opacity="0"/>
<stop offset="1" stop-color="#3E7DFA" stop-opacity="0.4"/>
</radialGradient>
</defs>
</svg>
