<svg width="128" height="97" viewBox="0 0 128 97" fill="none" xmlns="http://www.w3.org/2000/svg">
<path d="M57.834 96.207L2.97262 64.7744C0.965263 63.6186 1.21144 61.6077 3.53126 60.2827L61.6783 26.8862C63.9981 25.5519 67.511 25.4109 69.5183 26.5667L124.38 57.9993C126.387 59.1551 126.141 61.166 123.821 62.491L65.674 95.8875C63.3542 97.2218 59.8414 97.3628 57.834 96.207Z" fill="url(#paint0_linear_238_120)"/>
<path d="M61.2527 85.881C59.6904 85.881 58.1754 85.5521 57.0297 84.8943L2.16832 53.4618C0.785892 52.6724 0 51.4509 0 50.1165C0 48.6036 0.994208 47.1753 2.73644 46.1792L60.8834 12.7827C63.6956 11.1664 67.8524 11.0255 70.3521 12.4632L125.213 43.8958C126.596 44.6851 127.382 45.9067 127.382 47.241C127.382 48.7539 126.388 50.1823 124.645 51.1783L66.5078 84.5749C64.9929 85.4394 63.0896 85.881 61.2622 85.881H61.2527ZM58.6488 82.1035C60.1544 82.968 63.0612 82.8176 64.8697 81.784L123.007 48.3875C123.822 47.9176 124.115 47.4478 124.115 47.241C124.115 47.1189 123.945 46.9028 123.575 46.6866L68.714 15.2541C67.2085 14.3896 64.3016 14.5399 62.4931 15.5736L4.35557 48.9701C3.54127 49.4399 3.24774 49.9098 3.24774 50.1165C3.24774 50.2387 3.41818 50.4548 3.79693 50.6709L58.6583 82.1035H58.6488Z" fill="url(#paint1_linear_238_120)"/>
<path d="M91.1939 21.0165C95.4074 35.9964 86.6292 51.6729 71.1797 55.8533C56.0814 60.0337 40.2808 51.3246 36.0673 35.9964C31.8538 21.0166 40.6319 5.33999 56.0814 1.15958C71.1798 -3.02084 86.9804 5.68835 91.1939 21.0165Z" fill="#0146FE"/>
<path d="M75.942 19.0844L72.8369 22.8972L69.7318 19.0844H71.9106V18.1581C71.9096 17.4213 71.6165 16.715 71.0955 16.1941C70.5746 15.6731 69.8683 15.38 69.1316 15.3791H68.2052V13.5264H69.1316C70.3595 13.5278 71.5368 14.0163 72.4051 14.8846C73.2733 15.7529 73.7618 16.9301 73.7633 18.1581V19.0844H75.942ZM57.0891 30.2005H51.2217C50.8125 30.2 50.4202 30.0373 50.1309 29.748C49.8416 29.4587 49.6789 29.0664 49.6784 28.6572V16.9223C49.6789 16.5132 49.8416 16.1209 50.1309 15.8316C50.4202 15.5423 50.8125 15.3795 51.2217 15.3791H62.9566C63.3657 15.3795 63.758 15.5423 64.0473 15.8316C64.3366 16.1209 64.4994 16.5132 64.4998 16.9223V22.7898H66.3525V16.9223C66.3516 16.022 65.9934 15.1588 65.3568 14.5221C64.7201 13.8855 63.8569 13.5273 62.9566 13.5264H51.2217C50.3213 13.5273 49.4581 13.8855 48.8214 14.5221C48.1848 15.1588 47.8267 16.022 47.8257 16.9223V28.6572C47.8267 29.5576 48.1848 30.4208 48.8214 31.0575C49.4581 31.6941 50.3213 32.0522 51.2217 32.0532H57.0891V30.2005ZM60.2998 22.8713C60.6314 22.252 60.9079 21.6048 61.1261 20.9371H62.6472V19.0844H58.0507L58.2878 18.8454L56.3295 16.8853L55.0197 18.1951L55.9089 19.0844H51.5311V20.9371H52.9539C53.4757 22.6093 54.3745 24.1395 55.581 25.4095C54.563 26.0661 53.442 26.5471 52.2647 26.8323L52.7131 28.6295C54.2666 28.2544 55.7334 27.5839 57.0335 26.6545C57.0539 26.6693 57.0798 26.6804 57.1002 26.6953C57.1245 25.7905 57.4537 24.9205 58.0345 24.2264C58.6153 23.5323 59.4135 23.0548 60.2998 22.8713ZM54.9215 20.9371H59.153C58.6841 22.1722 57.9593 23.2942 57.0261 24.2293C56.0965 23.2956 55.3787 22.1728 54.9215 20.9371ZM74.119 43.1693H62.2914C61.4034 43.1683 60.5519 42.8151 59.924 42.1872C59.296 41.5592 58.9428 40.7078 58.9418 39.8197V27.9921C58.9428 27.104 59.296 26.2526 59.924 25.6247C60.5519 24.9967 61.4034 24.6435 62.2914 24.6425H74.119C75.0071 24.6435 75.8585 24.9967 76.4865 25.6247C77.1144 26.2526 77.4677 27.104 77.4686 27.9921V39.8197C77.4677 40.7078 77.1144 41.5592 76.4865 42.1872C75.8585 42.8151 75.0071 43.1683 74.119 43.1693ZM62.2914 26.4952C61.8946 26.4957 61.5141 26.6535 61.2335 26.9342C60.9528 27.2148 60.795 27.5953 60.7945 27.9921V39.8197C60.795 40.2165 60.9528 40.597 61.2335 40.8776C61.5141 41.1583 61.8946 41.3162 62.2914 41.3166H74.119C74.5159 41.3162 74.8963 41.1583 75.177 40.8776C75.4576 40.597 75.6155 40.2165 75.616 39.8197V27.9921C75.6155 27.5953 75.4576 27.2148 75.177 26.9342C74.8963 26.6535 74.5159 26.4957 74.119 26.4952H62.2914ZM72.1885 39.3528L73.8541 38.5395L68.2052 26.9787L62.5564 38.5395L64.2219 39.3546L65.0742 37.6113H71.3363L72.1885 39.3528ZM65.9783 35.7586L68.2052 31.201L70.4321 35.7586H65.9783ZM57.0891 41.3166V43.1693H56.1628C54.9348 43.1679 53.7576 42.6794 52.8893 41.8111C52.021 40.9428 51.5325 39.7656 51.5311 38.5376V37.6113H49.3523L52.4574 33.7984L55.5625 37.6113H53.3837V38.5376C53.3847 39.2744 53.6778 39.9806 54.1988 40.5016C54.7197 41.0226 55.426 41.3157 56.1628 41.3166H57.0891Z" fill="white"/>
<defs>
<linearGradient id="paint0_linear_238_120" x1="63.6762" y1="166.73" x2="34.3096" y2="31.0414" gradientUnits="userSpaceOnUse">
<stop stop-color="#0D9AFF" stop-opacity="0.01"/>
<stop offset="1" stop-color="#0D9AFF" stop-opacity="0.12"/>
</linearGradient>
<linearGradient id="paint1_linear_238_120" x1="13.3048" y1="72.4833" x2="135.771" y2="38.3246" gradientUnits="userSpaceOnUse">
<stop offset="0.158406" stop-color="#A5BDFF" stop-opacity="0.46"/>
<stop offset="1" stop-color="#A5BDFF" stop-opacity="0"/>
</linearGradient>
</defs>
</svg>
