<svg width="98" height="79" viewBox="0 0 100 81" fill="none" xmlns="http://www.w3.org/2000/svg">
<path d="M45.1058 79.3255L4.17246 55.8651C1.65786 54.429 1.97811 51.9099 4.87227 50.2501L44.3941 27.602C47.3002 25.9422 51.6888 25.7539 54.1916 27.2018L95.1249 50.6621C97.6395 52.0983 97.3193 54.6173 94.4251 56.2771L54.9033 78.9253C51.9972 80.585 47.6085 80.7734 45.1058 79.3255Z" fill="url(#paint0_linear_238_130)"/>
<path d="M49.3867 69.7763C47.3821 69.7763 45.4606 69.3525 43.9423 68.4814L3.00897 45.021C1.19419 43.9851 0.150391 42.3607 0.150391 40.5832C0.150391 38.5939 1.44327 36.7104 3.70878 35.4038L43.2306 12.7556C46.8839 10.6603 52.1029 10.4838 55.3529 12.3554L96.2863 35.8158C98.101 36.8517 99.1448 38.4761 99.1448 40.2536C99.1448 42.243 97.852 44.1382 95.5864 45.433L56.0646 68.0812C54.1074 69.2112 51.6878 69.7763 49.3748 69.7763H49.3867ZM46.2672 64.4909C48.0701 65.5268 51.5691 65.3385 53.7398 64.0907L93.2616 41.4425C94.258 40.8775 94.4952 40.3595 94.4952 40.2654C94.4834 40.2418 94.3529 40.0535 93.9614 39.8298L53.0281 16.3695C51.2252 15.3336 47.7379 15.5219 45.5555 16.7697L6.03359 39.4178C5.03724 39.9829 4.80002 40.5008 4.80002 40.595C4.81188 40.6185 4.94235 40.8187 5.33378 41.0305L46.2672 64.4909Z" fill="url(#paint1_linear_238_130)"/>
<path d="M49.5473 20.468C55.0216 20.468 59.4583 16.0662 59.4583 10.6349C59.4583 5.20362 55.0216 0.801758 49.5473 0.801758C44.073 0.801758 39.6363 5.20362 39.6363 10.6349C39.6363 16.0662 44.073 20.468 49.5473 20.468ZM56.485 22.9263H55.1919C53.473 23.7099 51.5605 24.1555 49.5473 24.1555C47.5341 24.1555 45.6294 23.7099 43.9027 22.9263H42.6096C36.8644 22.9263 32.2031 27.551 32.2031 33.2511V36.4469C32.2031 38.4826 33.8679 40.1343 35.9197 40.1343H63.1749C65.2267 40.1343 66.8915 38.4826 66.8915 36.4469V33.2511C66.8915 27.551 62.2302 22.9263 56.485 22.9263Z" fill="#9DB8FF"/>
<defs>
<linearGradient id="paint0_linear_238_130" x1="49.6487" y1="133.265" x2="27.3645" y2="30.2101" gradientUnits="userSpaceOnUse">
<stop stop-color="#0D9AFF" stop-opacity="0.01"/>
<stop offset="1" stop-color="#0D9AFF" stop-opacity="0.12"/>
</linearGradient>
<linearGradient id="paint1_linear_238_130" x1="10.4902" y1="59.2043" x2="105.871" y2="33.0029" gradientUnits="userSpaceOnUse">
<stop offset="0.158406" stop-color="#A5BDFF" stop-opacity="0.46"/>
<stop offset="1" stop-color="#A5BDFF" stop-opacity="0"/>
</linearGradient>
</defs>
</svg>
