<svg width="123" height="75" viewBox="0 0 123 75" fill="none" xmlns="http://www.w3.org/2000/svg">
<rect opacity="0.1" x="0.505371" y="29.0176" width="2.00302" height="16.6806" rx="1.00151" fill="#3E7DFA"/>
<rect opacity="0.2" x="6.79834" y="22.1719" width="2.00302" height="30.3736" rx="1.00151" fill="#3E7DFA"/>
<rect opacity="0.3" x="13.0962" y="14.3291" width="2.00302" height="46.0584" rx="1.00151" fill="#3E7DFA"/>
<rect opacity="0.4" x="19.3892" y="8.02881" width="2.00302" height="58.6599" rx="1.00151" fill="#3E7DFA"/>
<rect opacity="0.5" x="25.6865" y="14.2964" width="2.00302" height="46.1236" rx="1.00151" fill="#3E7DFA"/>
<rect opacity="0.6" x="31.98" y="22.1855" width="2.00302" height="30.3445" rx="1.00151" fill="#3E7DFA"/>
<rect opacity="0.7" x="38.2773" y="5.16699" width="2.00302" height="64.3828" rx="1.00151" fill="#3E7DFA"/>
<rect opacity="0.8" x="44.5703" y="7.88477" width="2.00302" height="58.946" rx="1.00151" fill="#3E7DFA"/>
<rect opacity="0.9" x="50.8677" y="22.1855" width="2.00302" height="30.3445" rx="1.00151" fill="#3E7DFA"/>
<rect x="57.1611" y="14.2964" width="2.00302" height="46.1236" rx="1.00151" fill="#3E7DFA"/>
<rect x="63.458" y="14.2964" width="2.00302" height="46.1236" rx="1.00151" fill="#3E7DFA"/>
<rect opacity="0.9" x="69.7515" y="0.15918" width="2.00302" height="74.3979" rx="1.00151" fill="#3E7DFA"/>
<rect opacity="0.8" x="76.0488" y="14.2964" width="2.00302" height="46.1236" rx="1.00151" fill="#3E7DFA"/>
<rect opacity="0.7" x="82.3413" y="22.1855" width="2.00302" height="30.3445" rx="1.00151" fill="#3E7DFA"/>
<rect opacity="0.6" x="88.6392" y="29.0137" width="2.00302" height="16.6895" rx="1.00151" fill="#3E7DFA"/>
<rect opacity="0.5" x="94.9326" y="20.4761" width="2.00302" height="33.7652" rx="1.00151" fill="#3E7DFA"/>
<rect opacity="0.4" x="101.23" y="15.3247" width="2.00302" height="44.0664" rx="1.00151" fill="#3E7DFA"/>
<rect opacity="0.3" x="107.522" y="18.6152" width="2.00302" height="37.4851" rx="1.00151" fill="#3E7DFA"/>
<rect opacity="0.2" x="113.821" y="22.1855" width="2.00302" height="30.3445" rx="1.00151" fill="#3E7DFA"/>
<rect opacity="0.1" x="120.113" y="29.0137" width="2.00302" height="16.6895" rx="1.00151" fill="#3E7DFA"/>
</svg>
